<svg id="Layer_1" data-name="Layer 1" xmlns="http://www.w3.org/2000/svg" viewBox="0 0 280.96754 172.60312"><defs><style>.cls-1{fill:#ed1c24;}</style></defs><title>cow</title><g id="CStzwT.tif"><path class="cls-1" d="M11.08691,129.31441v-3.29149a16.91157,16.91157,0,0,1,1.03393-2.50736,7.67255,7.67255,0,0,0,.9747-4.61032c-.06642-1.09271-.22244-2.17979-.29682-3.27223-.14249-2.09266-.36684-4.18842-.34676-6.28087.01737-1.8101.87214-2.42816,2.66649-2.22727a5.386,5.386,0,0,1,4.68523,3.88611,18.18315,18.18315,0,0,1,1.138,5.182,22.022,22.022,0,0,0,4.29942,12.20913c1.13357,1.601,2.1548,3.28249,3.2044,4.94174a9.84051,9.84051,0,0,1,1.5776,5.86066c-.14255,2.78022-.4649,5.55336-.5445,8.33429a134.92309,134.92309,0,0,0,2.49607,32.02871c.6993,3.29264,1.57947,6.55287,2.53282,9.78189a11.18983,11.18983,0,0,0,1.66814,2.62459l.34794-.20553a5.47,5.47,0,0,0-.063-.792c-1.02587-4.57926-1.9393-9.18808-3.11958-13.72744-2.09176-8.04487-1.67566-16.087-.49753-24.19556.71442-4.91714,1.15564-9.87651,1.62553-14.82585a12.161,12.161,0,0,0-3.814-10.42318,17.81869,17.81869,0,0,1-1.894-2.3411,7.59173,7.59173,0,0,1-1.32589-6.49746,38.49281,38.49281,0,0,1,1.32764-4.31021,40.40654,40.40654,0,0,0,2.40509-12.4512,90.17358,90.17358,0,0,0-1.32026-16.90868c-.50247-3.28546-1.30889-6.52333-1.89082-9.79821-.29945-1.68517-.40382-3.44595,1.10336-4.69542A4.95674,4.95674,0,0,0,30.81,66.02675c-.09843-.81607-.2304-1.6294-.29457-2.44809-.29967-3.82313.51673-4.98913,4.2848-5.86461,1.949-.45283,3.93875-.73007,5.9101-1.08665H48.939a32.27078,32.27078,0,0,1,3.77123,1.09277c1.69183.70925,1.80555,1.70774.36539,2.80864-1.55881,1.1916-3.18515,2.29732-4.80913,3.40064a11.31229,11.31229,0,0,0-5.14215,7.31849,95.22645,95.22645,0,0,0-1.44807,10.14347,43.72989,43.72989,0,0,0,4.93729,24.90035,68.88737,68.88737,0,0,0,3.92092,5.76423,5.46355,5.46355,0,0,0,.53122-.57747c3.55074-6.29461,6.879-12.71089,8.5342-19.79384.98389-4.21015,1.48757-8.53146,2.24274-12.79648.57539-3.24969,1.57956-6.1629,5.08874-7.52639,1.94769-.75677,2.30075-2.69652,2.49971-4.55968a13.23009,13.23009,0,0,0,.07351-2.32674,1.25138,1.25138,0,0,1,1.247-1.53838c4.10348-.63229,8.18747-1.412,12.30537-1.921a30.22463,30.22463,0,0,1,6.2574.00408c1.45908.12571,1.76671.88456.89277,2.05437a27.13984,27.13984,0,0,1-3.69528,4.20727c-4.1919,3.68252-7.94226,7.64073-10.09444,12.93088-1.89064,4.64728-4.05931,9.18137-5.9538,13.82718a16.73463,16.73463,0,0,0-1.0361,10.59062c.56461,2.24287,1.8339,2.80343,4.001,1.91584,1.78553-.73129,2.49106-2.24368,3.19915-3.87452,1.11664-2.57177,2.27967-2.77544,4.52258-1.1a21.99231,21.99231,0,0,0,3.875,2.52536c2.09969.95931,3.62236.40128,4.9512-1.45092.2129-.29675.4261-.59351.64756-.88386a2.63355,2.63355,0,0,1,2.71131-1.22217,2.57588,2.57588,0,0,1,2.19344,2.19052c.28612,2.35059,1.90852,3.46276,3.64218,4.65421a95.78042,95.78042,0,0,1,8.35823,6.17379,6.40307,6.40307,0,0,0,5.25315,1.65219c1.49654-.16581,2.9967-.38916,4.49763-.4093,6.07934-.08158,11.95717,1.30423,17.84443,2.58177,5.32339,1.15517,10.66219,2.12841,16.15064,1.74553,7.35641-.51319,10.85916-3.49453,12.26126-10.72426a58.924,58.924,0,0,0,.86218-7.88367c.175-3.09851.07386-6.21175.20622-9.31374.26108-6.11878.74871-12.23048-2.1621-17.99529a7.8551,7.8551,0,0,1-.43382-3.60855,2.27323,2.27323,0,0,1,1.99319-2.27264c2.08889-.44826,2.53506-.96654,2.87677-3.06673.10987-.67521.19755-1.35435.28152-2.03341a4.34321,4.34321,0,0,1,3.055-3.84992A15.33453,15.33453,0,0,1,173.6911,57.7q4.70314-.42786,9.42067-.69144a35.127,35.127,0,0,1,4.92252.03011c.62578.05344,1.20635.63633,1.80752.978a7.02,7.02,0,0,1-1.06154,1.65582c-1.30378,1.14308-2.67447,2.2167-4.07364,3.24285a19.49454,19.49454,0,0,0-7.71873,12.20321c-1.99552,9.51885-.06377,18.55856,3.19013,27.498a1.486,1.486,0,0,0,.35436-.26042c.36277-.526.73834-1.04683,1.05447-1.60084a43.10341,43.10341,0,0,0,6.005-22.05229,56.98835,56.98835,0,0,1,.73848-7.88785c.15134-1.141.64553-2.25995,2.10019-2.307,2.04022-.066,2.51879-1.03007,2.78014-3.027.06516-.49774.1076-.99889.1867-1.49429.42084-2.63579.83293-3.11579,3.499-3.23336,3.64753-.16085,7.30207-.18773,10.954-.21067,1.393-.00875,2.78712.15216,4.18368.23593a5.37764,5.37764,0,0,1-2.51919,5.64014,46.31615,46.31615,0,0,1-4.49844,2.60367,10.6251,10.6251,0,0,0-5.26349,6.04784,38.1834,38.1834,0,0,0-1.17019,21.18061c1.11807,5.17861,2.38146,10.32747,2.11954,15.69019-.08364,1.71249.35853,2.40481,2.08207,2.60016a54.31691,54.31691,0,0,0,5.876.21163,6.025,6.025,0,0,1,4.41676,1.8469,12.34514,12.34514,0,0,1,3.16747,6.41984c.98664,4.57018,2.11223,9.10679,4.64059,13.0905,2.54226,4.00562,5.28483,7.88647,8.00557,11.77585,3.37622,4.82643,6.67875,9.7143,10.26782,14.37967,5.48121,7.125,12.72111,10.3061,21.81769,9.45272a115.45631,115.45631,0,0,1,14.91122-.35658,37.09552,37.09552,0,0,1,8.95369,1.682,6.87227,6.87227,0,0,1,3.61692,2.72862,42.84194,42.84194,0,0,1,3.29174,7.18951,3.87688,3.87688,0,0,1-.88383,4.327,39.808,39.808,0,0,1-5.333,4.87813,58.03935,58.03935,0,0,0-15.41986,15.4175,32.93923,32.93923,0,0,1-11.19351,10.26624c-.56758.3176-1.09472.70749-1.6202,1.05057,2.55157,0,5.00207-.086,7.44383.02329a43.40106,43.40106,0,0,1,7.86643.71c3.72122.86635,5.65689,3.63658,6.24913,7.34047.22557,1.41073-.44544,2.03232-1.81351,1.63545a8.42891,8.42891,0,0,1-2.60263-1.17653c-2.58336-1.88419-5.47317-2.13854-8.49216-1.78754a33.286,33.286,0,0,0-3.90755.67495c-3.5926.86114-7.15014,1.87744-10.75891,2.66005-3.98143.86339-6.83845-.5257-8.84282-4.04646-.316-.55518-.60975-1.12373-.94227-1.66875-1.67636-2.74779-2.83741-3.2057-5.9321-2.2827a18.1736,18.1736,0,0,0-2.42373.93706c-1.77939.82346-3.53884,1.69014-5.30434,2.54348a1.82441,1.82441,0,0,1-2.75329-.82727,6.48541,6.48541,0,0,1,2.95907-8.3563,10.51263,10.51263,0,0,0,1.83415-.90984,7.911,7.911,0,0,0,1.1686-1.24233c-.466-.3929-.86973-.96427-1.4074-1.15212-8.76364-3.06178-17.71058-4.60292-26.905-2.37712a46.37768,46.37768,0,0,1-20.33879.20893c-7.46858-1.48673-15.01371-2.6625-22.5709-3.61249a184.95922,184.95922,0,0,0-29.9827-.80354c-12.18521.45376-24.366,1.1281-36.53238,1.94829-7.8745.53085-15.71327,1.57257-23.58086,2.23268-4.53766.38073-9.13623.90782-13.64315.55307-5.17127-.407-10.299-1.33626-15.52429-1.36042a6.82619,6.82619,0,0,1-3.69533-1.23374,29.83046,29.83046,0,0,1-9.63991-10.84819C24.15677,190.582,23.18512,184.02684,22.916,177.325a155.87057,155.87057,0,0,1,1.17589-23.24285c.6858-6.26209-.73343-11.72586-6.0081-15.857C15.0738,135.86769,12.35954,133.11438,11.08691,129.31441Z" transform="translate(-11.08691 -56.62741)"/></g></svg>