<svg id="Layer_1" data-name="Layer 1" xmlns="http://www.w3.org/2000/svg" viewBox="0 0 266.64648 212.87695"><defs><style>.cls-1{fill:#c6d9dc;}</style></defs><title>error</title><path class="cls-1" d="M197.68806,443.19908q-4.16717,0-5.5895-3.35409a11.88186,11.88186,0,0,1-8.43545,3.35409,9.32447,9.32447,0,0,1-6.40291-2.10886,7.11841,7.11841,0,0,1-2.3887-5.61526q0-5.33592,4.62476-6.911a32.40846,32.40846,0,0,1,4.57323-1.118,15.52618,15.52618,0,0,0,4.90394-1.39721,2.63023,2.63023,0,0,0,1.29545-2.41381,2.40864,2.40864,0,0,0-.99083-1.95655,3.83951,3.83951,0,0,0-2.46436-.78764q-1.677,0-1.677,1.06715a4.92041,4.92041,0,0,0,.05088.71165v.20319a2.95924,2.95924,0,0,1-1.19435,2.38837,4.57574,4.57574,0,0,1-2.9725.96539,4.75133,4.75133,0,0,1-3.35409-1.21946,3.97518,3.97518,0,0,1-1.32089-3.04914,4.79191,4.79191,0,0,1,2.89618-4.31916,16.83629,16.83629,0,0,1,7.97819-1.57529q5.48807,0,8.18106,1.67672,2.89716,1.82968,2.89683,6.80929v10.5192q0,1.62666.81276,1.62584a5.40244,5.40244,0,0,0,.76253-.05055,1.13262,1.13262,0,0,1,.3555-.05088,2.7768,2.7768,0,0,1,2.79507,2.79475,3.241,3.241,0,0,1-1.499,2.7442A6.4639,6.4639,0,0,1,197.68806,443.19908Zm-7.3683-10.8747v-1.118a45.50945,45.50945,0,0,1-4.47212,1.27034q-2.79442.7123-2.79442,2.18518,0,2.338,2.7442,2.33749Q190.31878,436.99937,190.31976,432.32438Z" transform="translate(-173.71076 -291.06123)"/><path class="cls-1" d="M212.37378,408.13606q1.42167,0,1.42265,1.88023V434.052q0,2.542,1.01627,2.541a2.235,2.235,0,0,0,.71165-.10176,2.64625,2.64625,0,0,1,.81276-.10143q2.23573,0,2.23606,2.64244,0,3.50624-3.04882,3.50607-.05186,0-3.86223-.30495-1.16923-.10127-2.4898-.10143a20.14106,20.14106,0,0,0-2.3887.15231q-2.134.2539-2.69332.25407a2.89419,2.89419,0,0,1-2.23541-.94,3.4963,3.4963,0,0,1-.86429-2.46469q0-2.8453,2.49045-2.84563a2.86809,2.86809,0,0,1,.8382.17775,2.8385,2.8385,0,0,0,.8382.17808q.864,0,.86429-2.846V416.87646q0-2.8453-.86429-2.846a2.82769,2.82769,0,0,0-.91451.20352,2.632,2.632,0,0,1-.81276.10143q-2.43925,0-2.43958-2.79475a3.47746,3.47746,0,0,1,.86429-2.49013,3.05866,3.05866,0,0,1,2.33717-.91451q.40605,0,1.72792.15231a24.24387,24.24387,0,0,0,2.59156.20319,8.95309,8.95309,0,0,0,2.03254-.20319A15.02325,15.02325,0,0,1,212.37378,408.13606Z" transform="translate(-173.71076 -291.06123)"/><path class="cls-1" d="M228.88853,423.73662V425.82l-.05088,3.15057-.10176,3.40464q-.05088,1.677-.05088,1.3721,0,2.99892,1.93144,2.99794,1.8287,0,1.829-2.69332a2.74551,2.74551,0,0,0-.05088-.60957v-.66077a4.10588,4.10588,0,0,1-.05088-.50814,2.42554,2.42554,0,0,1,2.7442-2.74387q3.20145,0,3.20145,5.13224a8.227,8.227,0,0,1-2.388,6.27571,9.30041,9.30041,0,0,1-6.6573,2.2615q-8.38425,0-8.38457-8.84216,0-1.42216.1272-4.2686.12622-2.8453.1272-4.26828v-1.62617a3.40947,3.40947,0,0,0-.229-1.60073q-.229-.33022-1.09259-.33039h-.81276a1.94847,1.94847,0,0,1-1.57529-.73676,2.88589,2.88589,0,0,1-.60989-1.90567,3.22532,3.22532,0,0,1,.63533-2.00711,1.84644,1.84644,0,0,1,1.499-.83852h.96539q1.21914,0,1.42265-.71133a4.32187,4.32187,0,0,0,.15264-1.3721v-2.49013a2.7888,2.7888,0,0,1,.94-2.43925,6.3536,6.3536,0,0,1,3.43041-.66045,4.081,4.081,0,0,1,2.41348.50814,2.85969,2.85969,0,0,1,.63533,2.23606v2.74387a3.5903,3.5903,0,0,0,.27918,1.82936q.27886.35615,1.44874.35583h3.65871q2.997,0,2.99794,2.79475,0,2.69413-2.7442,2.69332h-4.16685q-1.06748,0-1.27067.35583A2.34151,2.34151,0,0,0,228.88853,423.73662Z" transform="translate(-173.71076 -291.06123)"/><path class="cls-1" d="M262.63033,427.44589a5.16465,5.16465,0,0,1-.53358,2.846,2.51962,2.51962,0,0,1-2.10886.71133H247.58911a2.24055,2.24055,0,0,0-1.14347.17775q-.229.17857-.2283.8894a4.91971,4.91971,0,0,0,1.37177,3.557,4.595,4.595,0,0,0,3.4552,1.423q2.135,0,4.37036-2.33749a4.53888,4.53888,0,0,1,3.35409-1.62617,3.50135,3.50135,0,0,1,2.46436.864,2.8422,2.8422,0,0,1,.94,2.18518q0,2.94755-3.22689,5.00537a14.30523,14.30523,0,0,1-7.851,2.058,12.94607,12.94607,0,0,1-9.65459-3.65871,13.287,13.287,0,0,1-3.60848-9.75667,13.86123,13.86123,0,0,1,3.583-9.93475,12.31544,12.31544,0,0,1,9.37541-3.78558,11.91549,11.91549,0,0,1,8.61353,3.0997A10.95429,10.95429,0,0,1,262.63033,427.44589Zm-16.15925-2.54068a.82153.82153,0,0,0,.15264.50814q.15264.20352,1.06715.20319h5.69126a1.52393,1.52393,0,0,0,.94-.17775.88912.88912,0,0,0,.17808-.63533,2.9612,2.9612,0,0,0-1.16891-2.31205,4.11358,4.11358,0,0,0-2.7442-.99083,4.04626,4.04626,0,0,0-3.30321,1.57529A3.071,3.071,0,0,0,246.47108,424.90521Z" transform="translate(-173.71076 -291.06123)"/><path class="cls-1" d="M273.65669,418.35v4.31948a10.92668,10.92668,0,0,1,1.677-3.81135,7.55472,7.55472,0,0,1,6.25027-2.79475,6.581,6.581,0,0,1,4.70107,1.80392,5.88272,5.88272,0,0,1,1.90535,4.44635,4.91149,4.91149,0,0,1-1.21979,3.43008,3.99809,3.99809,0,0,1-3.0997,1.34666,3.42633,3.42633,0,0,1-2.41348-.91484,2.925,2.925,0,0,1-.99083-2.23573,4.75934,4.75934,0,0,1,.66012-1.982h-.30462q-3.405,0-4.57323,3.60816a22.11041,22.11041,0,0,0-.91517,6.65665v1.93111a5.50548,5.50548,0,0,0,.30527,2.33749.79036.79036,0,0,0,.711.30495,5.60713,5.60713,0,0,0,1.27067-.20319,5.575,5.575,0,0,1,1.21979-.20319,2.68975,2.68975,0,0,1,2.69332,2.693,3.3451,3.3451,0,0,1-.99149,2.46469,3.28529,3.28529,0,0,1-2.41348.99083,28.50368,28.50368,0,0,1-2.846-.25407,27.737,27.737,0,0,0-3.20145-.15231,33.5416,33.5416,0,0,0-3.40432.15231q-2.43925.2539-2.99794.25407-3.15155,0-3.15057-3.40464,0-2.8453,2.43892-2.84563a2.81832,2.81832,0,0,1,.91451.17775,2.5596,2.5596,0,0,0,.76253.17808q.863,0,.86364-2.846V425.566q0-2.89667-.86364-2.89651a3.4235,3.4235,0,0,0-.788.17775,3.33013,3.33013,0,0,1-.88908.17775q-2.43925,0-2.43892-2.79475a3.73458,3.73458,0,0,1,.81276-2.49013,2.60137,2.60137,0,0,1,2.08342-.96539,7.0732,7.0732,0,0,1,1.42265.20319,7.96941,7.96941,0,0,0,1.72792.20319,11.28053,11.28053,0,0,0,1.7788-.20319,11.26753,11.26753,0,0,1,1.72727-.20319A1.39263,1.39263,0,0,1,273.65669,418.35Z" transform="translate(-173.71076 -291.06123)"/><path class="cls-1" d="M298.0981,418.19768v2.43892q3.91278-4.57323,8.84248-4.57323,5.28455,0,7.46941,3.96366,1.16924,2.03271,1.16891,6.40258V434.052q0,2.59189,1.01627,2.59189a2.94722,2.94722,0,0,0,.76253-.15264,2.16937,2.16937,0,0,1,.76188-.10143q2.23573,0,2.23606,2.64244,0,3.50624-3.04882,3.50607a21.66366,21.66366,0,0,1-2.43892-.20319,21.70734,21.70734,0,0,0-2.43958-.20319,19.14788,19.14788,0,0,0-2.69332.20319,17.2425,17.2425,0,0,1-2.33717.20319q-2.99892,0-2.99859-3.0997,0-2.69266,2.08342-2.84563,1.37275-.10127,1.37242-1.27034v-7.11423a8.161,8.161,0,0,0-.76253-4.14173,2.83571,2.83571,0,0,0-2.59156-1.194,4.51687,4.51687,0,0,0-3.42976,1.42265,5.03951,5.03951,0,0,0-1.347,3.60816v5.28488a10.36522,10.36522,0,0,0,.20352,2.76931q.20254.48384,1.16891.63533,1.8287.25488,1.829,2.74387,0,3.20145-2.69332,3.20145a14.34339,14.34339,0,0,1-1.87991-.15231,23.09545,23.09545,0,0,0-2.79507-.25407,26.64541,26.64541,0,0,0-2.71876.20319,26.6581,26.6581,0,0,1-2.71876.20319q-3.20048,0-3.2008-3.40464,0-2.8453,2.43892-2.84563a2.81832,2.81832,0,0,1,.91451.17775,2.5596,2.5596,0,0,0,.76253.17808q.863,0,.86364-2.846V425.566q0-2.89667-.86364-2.89651a3.4235,3.4235,0,0,0-.788.17775,3.33013,3.33013,0,0,1-.88908.17775q-2.43925,0-2.43892-2.79475a3.66161,3.66161,0,0,1,.8382-2.49013,2.787,2.787,0,0,1,2.21062-.96539,12.01472,12.01472,0,0,1,1.72792.25407,6.85262,6.85262,0,0,0,1.32089.15231,17.67278,17.67278,0,0,0,2.08342-.20319q1.47353-.20254,1.62617-.20319Q298.0981,416.7747,298.0981,418.19768Z" transform="translate(-173.71076 -291.06123)"/><path class="cls-1" d="M342.2068,443.19908q-4.16717,0-5.5895-3.35409a11.88186,11.88186,0,0,1-8.43545,3.35409,9.32447,9.32447,0,0,1-6.40291-2.10886,7.11841,7.11841,0,0,1-2.3887-5.61526q0-5.33592,4.62476-6.911a32.40846,32.40846,0,0,1,4.57323-1.118,15.52618,15.52618,0,0,0,4.90394-1.39721,2.63023,2.63023,0,0,0,1.29545-2.41381,2.40864,2.40864,0,0,0-.99083-1.95655,3.83951,3.83951,0,0,0-2.46436-.78764q-1.677,0-1.677,1.06715a4.9204,4.9204,0,0,0,.05088.71165v.20319a2.95924,2.95924,0,0,1-1.19435,2.38837,4.57574,4.57574,0,0,1-2.9725.96539,4.75133,4.75133,0,0,1-3.35409-1.21946,3.97518,3.97518,0,0,1-1.32089-3.04914,4.79191,4.79191,0,0,1,2.89618-4.31916,16.83629,16.83629,0,0,1,7.97819-1.57529q5.48807,0,8.18106,1.67672,2.89716,1.82968,2.89683,6.80929v10.5192q0,1.62666.81276,1.62584a5.40244,5.40244,0,0,0,.76253-.05055,1.13262,1.13262,0,0,1,.3555-.05088,2.7768,2.7768,0,0,1,2.79507,2.79475,3.241,3.241,0,0,1-1.499,2.7442A6.4639,6.4639,0,0,1,342.2068,443.19908Zm-7.3683-10.8747v-1.118a45.50944,45.50944,0,0,1-4.47212,1.27034q-2.79442.7123-2.79442,2.18518,0,2.338,2.7442,2.33749Q334.83752,436.99937,334.8385,432.32438Z" transform="translate(-173.71076 -291.06123)"/><path class="cls-1" d="M357.34978,423.73662V425.82l-.05088,3.15057-.10176,3.40464q-.05088,1.677-.05088,1.3721,0,2.99892,1.93144,2.99794,1.8287,0,1.829-2.69332a2.74551,2.74551,0,0,0-.05088-.60957v-.66077a4.10589,4.10589,0,0,1-.05088-.50814,2.42554,2.42554,0,0,1,2.7442-2.74387q3.20145,0,3.20145,5.13224a8.227,8.227,0,0,1-2.388,6.27571,9.30041,9.30041,0,0,1-6.6573,2.2615q-8.38425,0-8.38457-8.84216,0-1.42216.1272-4.2686.12622-2.8453.1272-4.26828v-1.62617a3.40947,3.40947,0,0,0-.229-1.60073q-.229-.33022-1.09259-.33039h-.81276a1.94847,1.94847,0,0,1-1.57529-.73676,2.88589,2.88589,0,0,1-.60989-1.90567,3.22532,3.22532,0,0,1,.63533-2.00711,1.84644,1.84644,0,0,1,1.499-.83852h.96539q1.21914,0,1.42265-.71133a4.32188,4.32188,0,0,0,.15264-1.3721v-2.49013a2.7888,2.7888,0,0,1,.94-2.43925,6.3536,6.3536,0,0,1,3.43041-.66045,4.081,4.081,0,0,1,2.41348.50814,2.85969,2.85969,0,0,1,.63533,2.23606v2.74387a3.5903,3.5903,0,0,0,.27918,1.82936q.27886.35615,1.44874.35583h3.65871q2.997,0,2.99794,2.79475,0,2.69413-2.7442,2.69332h-4.16685q-1.06748,0-1.27067.35583A2.34151,2.34151,0,0,0,357.34978,423.73662Z" transform="translate(-173.71076 -291.06123)"/><path class="cls-1" d="M377.16774,416.7747q1.42167,0,1.42265,1.98167V434.052q0,2.59189.96539,2.59189a3.81261,3.81261,0,0,0,.73709-.1272,4.00151,4.00151,0,0,1,.88908-.12687q2.134,0,2.1343,2.64244,0,3.50624-2.99794,3.50607-.50879,0-2.846-.25407a30.89765,30.89765,0,0,0-3.25233-.15231,25.96,25.96,0,0,0-2.69332.20319,25.84658,25.84658,0,0,1-2.64244.20319,2.89419,2.89419,0,0,1-2.23541-.94,3.42378,3.42378,0,0,1-.86429-2.41381q0-2.89667,2.43958-2.89651l1.32089.30495a1.49048,1.49048,0,0,0,.35615.05088q.91386,0,.91451-2.846V425.566q0-2.89667-.86429-2.89651a4.89677,4.89677,0,0,0-.91451.25407,4.33925,4.33925,0,0,1-.81276.10143q-2.43925,0-2.43958-2.84563a3.49794,3.49794,0,0,1,.86429-2.46469,2.95741,2.95741,0,0,1,2.28629-.94,12.49854,12.49854,0,0,1,1.62617.15231,21.08806,21.08806,0,0,0,2.846.25407,15.90039,15.90039,0,0,0,2.23606-.20319Q377.0151,416.77535,377.16774,416.7747Zm-2.89683-1.93111a4.59859,4.59859,0,1,1,3.27777-1.34666A4.44454,4.44454,0,0,1,374.27091,414.84359Z" transform="translate(-173.71076 -291.06123)"/><path class="cls-1" d="M394.19062,425.41334,397.6967,436.593l3.76047-11.17965q.15264-.40605.40638-1.118a3.50959,3.50959,0,0,0,.15264-.81308q0-.71084-1.32089-.96539-1.93242-.40605-1.93144-2.84563,0-2.89667,2.7442-2.89651a26.6581,26.6581,0,0,1,2.71876.20319,26.45542,26.45542,0,0,0,2.71876.20319,19.02351,19.02351,0,0,0,2.79442-.20319,15.44635,15.44635,0,0,1,1.98232-.20319q2.99794,0,2.99794,3.20145,0,3.04882-2.59156,3.04882a.82368.82368,0,0,1-.25439-.05088h-.25374a2.42473,2.42473,0,0,0-.66077-.10143q-.86494,0-1.42265,1.57529-.20352.55967-1.01627,2.64244l-4.37036,11.38284q-1.57529,4.16717-4.52235,3.96366l-2.3887-.15264-2.388.15264h-.20352q-2.38935,0-3.50607-3.04914l-5.28488-14.27934a10.48683,10.48683,0,0,0-.86429-1.85479.9031.9031,0,0,0-.76188-.33006h-.25439a.83158.83158,0,0,1-.25374.05055,3.51867,3.51867,0,0,1-.86429.10176,2.06575,2.06575,0,0,1-1.67639-.81308,3.19649,3.19649,0,0,1-.66077-2.08342q0-3.404,3.0997-3.40464a19.70827,19.70827,0,0,1,2.31238.20319,19.53426,19.53426,0,0,0,2.31173.20319q1.06748,0,3.65871-.25407,1.57431-.15215,2.33782-.15231,2.74354,0,2.7442,2.89651,0,2.64276-2.03254,2.84563-1.271.15264-1.27067,1.01627A12.24124,12.24124,0,0,0,394.19062,425.41334Z" transform="translate(-173.71076 -291.06123)"/><path class="cls-1" d="M437.994,427.44589a5.16465,5.16465,0,0,1-.53358,2.846,2.51962,2.51962,0,0,1-2.10886.71133H422.95283a2.24055,2.24055,0,0,0-1.14347.17775q-.229.17857-.2283.8894a4.91971,4.91971,0,0,0,1.37177,3.557,4.595,4.595,0,0,0,3.4552,1.423q2.135,0,4.37036-2.33749a4.53888,4.53888,0,0,1,3.35409-1.62617,3.50135,3.50135,0,0,1,2.46436.864,2.8422,2.8422,0,0,1,.94,2.18518q0,2.94755-3.22689,5.00537a14.30523,14.30523,0,0,1-7.851,2.058,12.94607,12.94607,0,0,1-9.65459-3.65871,13.287,13.287,0,0,1-3.60848-9.75667,13.86123,13.86123,0,0,1,3.583-9.93475,12.31544,12.31544,0,0,1,9.37541-3.78558,11.91549,11.91549,0,0,1,8.61353,3.0997A10.95429,10.95429,0,0,1,437.994,427.44589Zm-16.15925-2.54068a.82153.82153,0,0,0,.15264.50814q.15264.20352,1.06715.20319h5.69126a1.52393,1.52393,0,0,0,.94-.17775.88912.88912,0,0,0,.17808-.63533,2.9612,2.9612,0,0,0-1.16891-2.31205,4.11358,4.11358,0,0,0-2.7442-.99083,4.04626,4.04626,0,0,0-3.30321,1.57529A3.071,3.071,0,0,0,421.8348,424.90521Z" transform="translate(-173.71076 -291.06123)"/><g id="CStzwT.tif"><path class="cls-1" d="M206.49833,339.61237v-2.19854a11.296,11.296,0,0,1,.69061-1.67479,5.12486,5.12486,0,0,0,.651-3.07945c-.04437-.72987-.14858-1.456-.19826-2.18568-.09517-1.39779-.245-2.79765-.23162-4.19529.0116-1.20905.58254-1.62188,1.78108-1.4877a3.59758,3.59758,0,0,1,3.12949,2.59572,12.1454,12.1454,0,0,1,.76013,3.46132,14.70956,14.70956,0,0,0,2.87179,8.15506c.75717,1.06938,1.4393,2.19253,2.14037,3.30083a6.57294,6.57294,0,0,1,1.05376,3.91462c-.09521,1.857-.31053,3.70936-.3637,5.56687a90.12159,90.12159,0,0,0,1.66725,21.39351c.4671,2.19931,1.055,4.377,1.69179,6.53379a7.47422,7.47422,0,0,0,1.11423,1.75309l.2324-.13729a3.65369,3.65369,0,0,0-.04207-.529c-.68522-3.05871-1.29535-6.13716-2.08372-9.16921-1.39719-5.37356-1.11925-10.74525-.33233-16.16138.4772-3.28439.77191-6.597,1.08577-9.90289a8.12291,8.12291,0,0,0-2.54756-6.96214,11.902,11.902,0,0,1-1.2651-1.56373,5.07088,5.07088,0,0,1-.88563-4.34,25.71119,25.71119,0,0,1,.8868-2.879,26.98947,26.98947,0,0,0,1.60647-8.31675,60.23125,60.23125,0,0,0-.88186-11.29412c-.33562-2.19452-.87427-4.35725-1.263-6.54469-.2-1.12561-.26973-2.30171.737-3.13629a3.31084,3.31084,0,0,0,1.16881-3.18972c-.06575-.5451-.15389-1.08835-.19676-1.6352-.20017-2.55365.34515-3.33248,2.862-3.91725,1.30182-.30246,2.63088-.48765,3.94764-.72583h5.49635a21.55518,21.55518,0,0,1,2.519.72991c1.13006.47374,1.206,1.14068.24406,1.876-1.0412.79593-2.12752,1.53449-3.21225,2.27145a7.556,7.556,0,0,0-3.43469,4.88837,63.60627,63.60627,0,0,0-.96724,6.77531,29.20929,29.20929,0,0,0,3.29785,16.63214,46.01319,46.01319,0,0,0,2.619,3.8502,3.64937,3.64937,0,0,0,.35483-.38572c2.37171-4.20447,4.59478-8.49021,5.7004-13.22125.65719-2.81216.99362-5.69857,1.498-8.54738.38433-2.17062,1.05506-4.1165,3.399-5.02724,1.301-.50549,1.53678-1.80114,1.66967-3.04563a8.837,8.837,0,0,0,.0491-1.55414.83586.83586,0,0,1,.83291-1.02756c2.74091-.42234,5.4688-.94312,8.21935-1.28315a20.18848,20.18848,0,0,1,4.17961.00273c.97459.084,1.18007.59084.59632,1.37221a18.128,18.128,0,0,1-2.46825,2.81024c-2.8,2.45973-5.305,5.10361-6.74256,8.63715-1.26285,3.10414-2.71141,6.13267-3.97683,9.23584a11.17786,11.17786,0,0,0-.69206,7.074c.37713,1.49812,1.22495,1.87255,2.67248,1.27968a4.18065,4.18065,0,0,0,2.13687-2.588c.74586-1.71781,1.5227-1.85385,3.02085-.73471a14.68971,14.68971,0,0,0,2.58831,1.68681,2.39831,2.39831,0,0,0,3.30714-.96914c.14221-.19822.28461-.39643.43254-.59038a1.75908,1.75908,0,0,1,1.811-.81635,1.72055,1.72055,0,0,1,1.4651,1.46315c.19111,1.57007,1.27479,2.31294,2.43278,3.10877a63.97633,63.97633,0,0,1,5.58286,4.12377,4.27692,4.27692,0,0,0,3.50883,1.10358c.99961-.11075,2.00164-.25994,3.00418-.27339,4.06068-.05449,7.98677.87116,11.91915,1.72449a38.17646,38.17646,0,0,0,10.78779,1.16592c4.9137-.34279,7.25335-2.33416,8.18988-7.16325a39.35815,39.35815,0,0,0,.57589-5.26588c.11688-2.06965.04934-4.14912.13774-6.22109.17439-4.087.5001-8.16932-1.44417-12.01991a5.24679,5.24679,0,0,1-.28977-2.41033,1.5184,1.5184,0,0,1,1.33135-1.518c1.39527-.29941,1.69329-.6456,1.92153-2.04841.07339-.451.132-.90464.188-1.35821a2.901,2.901,0,0,1,2.04059-2.57155,10.24267,10.24267,0,0,1,2.32166-.45465q3.14145-.28579,6.29252-.46185a23.463,23.463,0,0,1,3.288.02011c.418.0357.80578.425,1.20733.65323a4.689,4.689,0,0,1-.70905,1.106c-.87086.76352-1.7864,1.48064-2.721,2.16606a13.02134,13.02134,0,0,0-5.15571,8.15111c-1.3329,6.3581-.04259,12.39615,2.13084,18.3672a.99256.99256,0,0,0,.2367-.17394c.24231-.35135.49318-.69923.70433-1.06928a28.79083,28.79083,0,0,0,4.011-14.72978,38.06526,38.06526,0,0,1,.49327-5.26867c.10109-.76215.43118-1.50953,1.40282-1.541,1.36276-.04411,1.68242-.688,1.857-2.02185.04352-.33246.07187-.66721.12471-.99811.2811-1.76057.55636-2.08118,2.33715-2.15972,2.43636-.10744,4.8774-.12539,7.3167-.14072.93046-.00584,1.86165.10164,2.79448.15759a3.592,3.592,0,0,1-1.68269,3.76732,30.93676,30.93676,0,0,1-3.00472,1.73912,7.097,7.097,0,0,0-3.51573,4.03965,25.50452,25.50452,0,0,0-.78162,14.14754c.74681,3.459,1.59069,6.89821,1.41574,10.48023-.05587,1.14386.23948,1.60629,1.39072,1.73677a36.28087,36.28087,0,0,0,3.92485.14136,4.0244,4.0244,0,0,1,2.95016,1.23364,8.24591,8.24591,0,0,1,2.1157,4.28812,26.25018,26.25018,0,0,0,3.09967,8.74377c1.6981,2.67554,3.53,5.26775,5.34731,7.86566,2.25514,3.2238,4.46106,6.48864,6.85837,9.60487a15.46943,15.46943,0,0,0,14.57308,6.31393,77.11883,77.11883,0,0,1,9.95992-.23818,24.77788,24.77788,0,0,1,5.9806,1.12346,4.59032,4.59032,0,0,1,2.41592,1.82257,28.61618,28.61618,0,0,1,2.19871,4.80222,2.58955,2.58955,0,0,1-.59035,2.8902,26.5897,26.5897,0,0,1-3.56219,3.25833,38.76726,38.76726,0,0,0-10.29966,10.29809,22.00169,22.00169,0,0,1-7.47668,6.85732c-.37912.21214-.73121.47257-1.08221.70173,1.70432,0,3.34112-.05741,4.97209.01555a28.98965,28.98965,0,0,1,5.25437.47422c2.48558.57868,3.77851,2.429,4.1741,4.90305.15067.94229-.29753,1.35748-1.21133,1.09239a5.63007,5.63007,0,0,1-1.73842-.78586,7.6493,7.6493,0,0,0-5.67232-1.194,22.23333,22.23333,0,0,0-2.61.45083c-2.39967.5752-4.77592,1.254-7.18639,1.77678a4.98049,4.98049,0,0,1-5.90655-2.70282c-.2111-.37083-.40728-.75059-.62939-1.11464-1.11972-1.83538-1.89524-2.14124-3.96234-1.52473a12.139,12.139,0,0,0-1.61893.62591c-1.18854.55-2.36376,1.12893-3.543,1.69891a1.21861,1.21861,0,0,1-1.83905-.55258,4.33192,4.33192,0,0,1,1.9765-5.58158,7.02189,7.02189,0,0,0,1.22512-.60773,5.28411,5.28411,0,0,0,.78056-.82981c-.31129-.26244-.58093-.64408-.94007-.76956-5.85365-2.04511-11.82974-3.07451-17.97113-1.58779a30.97787,30.97787,0,0,1-13.58525.13956c-4.98862-.99306-10.02838-1.77841-15.07618-2.413a123.54311,123.54311,0,0,0-20.02688-.53672c-8.13908.30309-16.27519.75351-24.40173,1.30136-5.25976.35458-10.49564,1.05039-15.75078,1.49131a56.67411,56.67411,0,0,1-9.11292.36942c-3.45414-.27189-6.87923-.89255-10.36942-.90869a4.55954,4.55954,0,0,1-2.46829-.82407,19.92519,19.92519,0,0,1-6.439-7.246,30.93544,30.93544,0,0,1-2.87929-12.9306,104.11342,104.11342,0,0,1,.78544-15.525c.45808-4.18275-.48989-7.83227-4.0131-10.59168A12.94294,12.94294,0,0,1,206.49833,339.61237Z" transform="translate(-173.71076 -291.06123)"/></g><path class="cls-1" d="M222.98127,472.63887q0,4.24072-1.05957,5.6543-1.06055,1.415-4.19043,1.41309H193.09553a4.446,4.446,0,0,0-2.27148.35352q-.4541.35522-.4541,1.76709a9.7743,9.7743,0,0,0,2.72559,7.06738,9.13413,9.13413,0,0,0,6.86621,2.82715q4.24072,0,8.68262-4.64453a9.01973,9.01973,0,0,1,6.66406-3.231,6.95408,6.95408,0,0,1,4.89648,1.7168,5.64379,5.64379,0,0,1,1.86816,4.34131q0,5.85718-6.41113,9.94531-6.41309,4.08911-15.59961,4.08887-12.01611,0-19.18359-7.26953-7.17041-7.26929-7.168-19.38525,0-12.21533,7.11719-19.73877,7.11914-7.52051,18.62891-7.522,10.70068,0,17.11328,6.15869Q222.98029,462.341,222.98127,472.63887Zm-32.10645-5.04834a1.6321,1.6321,0,0,0,.30273,1.00977q.30322.4043,2.12012.40381h11.30859a3.02618,3.02618,0,0,0,1.86719-.35352,1.76808,1.76808,0,0,0,.35352-1.26221,5.88077,5.88077,0,0,0-2.32227-4.59375,8.17025,8.17025,0,0,0-5.45215-1.96875,8.03812,8.03812,0,0,0-6.5625,3.12988A6.10167,6.10167,0,0,0,190.87482,467.59053Z" transform="translate(-173.71076 -291.06123)"/><path class="cls-1" d="M249.73615,454.56612v8.582a21.696,21.696,0,0,1,3.332-7.57275q4.44141-5.551,12.41895-5.55273a13.07176,13.07176,0,0,1,9.33887,3.584,11.68593,11.68593,0,0,1,3.78613,8.83447,9.76265,9.76265,0,0,1-2.42285,6.81543,7.94488,7.94488,0,0,1-6.15918,2.67529,6.81152,6.81152,0,0,1-4.7959-1.81738,5.81315,5.81315,0,0,1-1.96875-4.44238,9.45592,9.45592,0,0,1,1.3125-3.9375h-.60547q-6.76611,0-9.08691,7.16846a43.93294,43.93294,0,0,0-1.81738,13.22656v3.83691q0,3.63428.60547,4.644a1.57063,1.57063,0,0,0,1.41406.606,11.11788,11.11788,0,0,0,2.52344-.40381,11.10118,11.10118,0,0,1,2.42383-.40381,5.34223,5.34223,0,0,1,5.35059,5.35107,6.646,6.646,0,0,1-1.96875,4.897,6.52824,6.52824,0,0,1-4.7959,1.96875,56.73131,56.73131,0,0,1-5.65332-.50488,55.11113,55.11113,0,0,0-6.36133-.30273,66.60508,66.60508,0,0,0-6.76465.30273q-4.84717.50391-5.957.50488-6.26221,0-6.25977-6.76465,0-5.65356,4.84668-5.6543a5.59842,5.59842,0,0,1,1.81738.35352,5.07082,5.07082,0,0,0,1.51367.35352q1.7168,0,1.7168-5.6543V468.903q0-5.75464-1.7168-5.75488a6.80106,6.80106,0,0,0-1.56445.353,6.6214,6.6214,0,0,1-1.7666.35352q-4.84717,0-4.84668-5.55322a7.41893,7.41893,0,0,1,1.61523-4.94727,5.16991,5.16991,0,0,1,4.13965-1.91846,14.06709,14.06709,0,0,1,2.82715.4043,15.83224,15.83224,0,0,0,3.43262.40381,22.41463,22.41463,0,0,0,3.53418-.40381,22.38442,22.38442,0,0,1,3.43262-.4043Q249.73517,451.43575,249.73615,454.56612Z" transform="translate(-173.71076 -291.06123)"/><path class="cls-1" d="M303.04475,454.56612v8.582a21.696,21.696,0,0,1,3.332-7.57275q4.44141-5.551,12.41895-5.55273a13.07176,13.07176,0,0,1,9.33887,3.584,11.68593,11.68593,0,0,1,3.78613,8.83447,9.76265,9.76265,0,0,1-2.42285,6.81543,7.94488,7.94488,0,0,1-6.15918,2.67529,6.81152,6.81152,0,0,1-4.7959-1.81738,5.81315,5.81315,0,0,1-1.96875-4.44238,9.45592,9.45592,0,0,1,1.3125-3.9375h-.60547q-6.76611,0-9.08691,7.16846a43.93294,43.93294,0,0,0-1.81738,13.22656v3.83691q0,3.63428.60547,4.644a1.57063,1.57063,0,0,0,1.41406.606,11.11788,11.11788,0,0,0,2.52344-.40381,11.10118,11.10118,0,0,1,2.42383-.40381,5.34223,5.34223,0,0,1,5.35059,5.35107,6.646,6.646,0,0,1-1.96875,4.897,6.52824,6.52824,0,0,1-4.7959,1.96875,56.73131,56.73131,0,0,1-5.65332-.50488,55.11113,55.11113,0,0,0-6.36133-.30273,66.60508,66.60508,0,0,0-6.76465.30273q-4.84717.50391-5.957.50488-6.26221,0-6.25977-6.76465,0-5.65356,4.84668-5.6543a5.59843,5.59843,0,0,1,1.81738.35352,5.07082,5.07082,0,0,0,1.51367.35352q1.7168,0,1.7168-5.6543V468.903q0-5.75464-1.7168-5.75488a6.80106,6.80106,0,0,0-1.56445.353,6.6214,6.6214,0,0,1-1.7666.35352q-4.84717,0-4.84668-5.55322a7.41893,7.41893,0,0,1,1.61523-4.94727,5.16991,5.16991,0,0,1,4.13965-1.91846,14.06709,14.06709,0,0,1,2.82715.4043,15.83224,15.83224,0,0,0,3.43262.40381,22.41463,22.41463,0,0,0,3.53418-.40381,22.38442,22.38442,0,0,1,3.43262-.4043Q303.04377,451.43575,303.04475,454.56612Z" transform="translate(-173.71076 -291.06123)"/><path class="cls-1" d="M359.78693,503.93819q-12.52,0-19.335-7.06738-6.81445-7.06641-6.81445-19.89062,0-12.72144,6.76465-19.83984,6.76318-7.11768,18.98145-7.11768,12.01318,0,18.93066,7.06738,6.91553,7.0686,6.916,19.38574,0,12.925-6.71387,20.19287Q371.80012,503.93868,359.78693,503.93819Zm-.40332-41.49707a8.01191,8.01191,0,0,0-7.01758,3.88721q-2.57373,3.88843-2.57422,10.65186,0,6.86792,2.57422,10.70264a8.20869,8.20869,0,0,0,7.21973,3.83643q9.38965,0,9.38965-14.53906Q368.97541,462.44161,359.38361,462.44112Z" transform="translate(-173.71076 -291.06123)"/><path class="cls-1" d="M411.48127,454.56612v8.582a21.696,21.696,0,0,1,3.332-7.57275q4.44141-5.551,12.41895-5.55273a13.07176,13.07176,0,0,1,9.33887,3.584,11.68593,11.68593,0,0,1,3.78613,8.83447,9.76265,9.76265,0,0,1-2.42285,6.81543,7.94488,7.94488,0,0,1-6.15918,2.67529,6.81152,6.81152,0,0,1-4.7959-1.81738,5.81315,5.81315,0,0,1-1.96875-4.44238,9.45592,9.45592,0,0,1,1.3125-3.9375h-.60547q-6.76611,0-9.08691,7.16846a43.93294,43.93294,0,0,0-1.81738,13.22656v3.83691q0,3.63428.60547,4.644a1.57063,1.57063,0,0,0,1.41406.606,11.11788,11.11788,0,0,0,2.52344-.40381,11.10118,11.10118,0,0,1,2.42383-.40381,5.34223,5.34223,0,0,1,5.35059,5.35107,6.646,6.646,0,0,1-1.96875,4.897,6.52824,6.52824,0,0,1-4.7959,1.96875,56.73131,56.73131,0,0,1-5.65332-.50488,55.11113,55.11113,0,0,0-6.36133-.30273,66.60508,66.60508,0,0,0-6.76465.30273q-4.84717.50391-5.957.50488-6.26221,0-6.25977-6.76465,0-5.65356,4.84668-5.6543a5.59842,5.59842,0,0,1,1.81738.35352,5.07082,5.07082,0,0,0,1.51367.35352q1.7168,0,1.7168-5.6543V468.903q0-5.75464-1.7168-5.75488a6.80107,6.80107,0,0,0-1.56445.353,6.6214,6.6214,0,0,1-1.7666.35352q-4.84717,0-4.84668-5.55322a7.41893,7.41893,0,0,1,1.61523-4.94727,5.16991,5.16991,0,0,1,4.13965-1.91846,14.06709,14.06709,0,0,1,2.82715.4043,15.83224,15.83224,0,0,0,3.43262.40381,22.41463,22.41463,0,0,0,3.53418-.40381,22.38442,22.38442,0,0,1,3.43262-.4043Q411.48029,451.43575,411.48127,454.56612Z" transform="translate(-173.71076 -291.06123)"/></svg>