<svg id="Layer_1" data-name="Layer 1" xmlns="http://www.w3.org/2000/svg" viewBox="0 0 283.16649 130.91995"><defs><style>.cls-1{fill:#ed1c24;}</style></defs><title>logo_text</title><path class="cls-1" d="M37.38753,116.22856q-4.41522,0-5.92221-3.55374a12.58912,12.58912,0,0,1-8.93757,3.55374,9.87951,9.87951,0,0,1-6.784-2.23439,7.54213,7.54213,0,0,1-2.53088-5.94951q0-5.65354,4.9-7.32242a34.33757,34.33757,0,0,1,4.84544-1.18458,16.45037,16.45037,0,0,0,5.19584-1.48038,2.7868,2.7868,0,0,0,1.37256-2.55749,2.552,2.552,0,0,0-1.04981-2.073,4.06805,4.06805,0,0,0-2.61105-.83453q-1.77687,0-1.77687,1.13067a5.21329,5.21329,0,0,0,.05391.754v.21528a3.13539,3.13539,0,0,1-1.26544,2.53054A4.84811,4.84811,0,0,1,19.728,98.24561a5.03415,5.03415,0,0,1-3.55374-1.292,4.2118,4.2118,0,0,1-1.39952-3.23064q0-2.90737,3.06857-4.57625a17.83847,17.83847,0,0,1,8.45309-1.66906q5.81474,0,8.668,1.77652,3.06961,1.93859,3.06927,7.2146V107.6141q0,1.72348.86114,1.72262a5.724,5.724,0,0,0,.80792-.05356,1.2,1.2,0,0,1,.37666-.05391,2.94209,2.94209,0,0,1,2.96145,2.9611,3.43392,3.43392,0,0,1-1.58819,2.90754A6.84866,6.84866,0,0,1,37.38753,116.22856Zm-7.80689-11.522V103.522a48.21836,48.21836,0,0,1-4.73832,1.346q-2.96076.7547-2.96076,2.31525,0,2.47715,2.90754,2.47663Q29.5796,109.65981,29.58063,104.70655Z" transform="translate(-8.83113 -76.38617)"/><path class="cls-1" d="M52.94741,79.07843q1.5063,0,1.50733,1.99215V106.537q0,2.6933,1.07677,2.69226a2.368,2.368,0,0,0,.754-.10781,2.80376,2.80376,0,0,1,.86114-.10747q2.36881,0,2.36916,2.79973,0,3.71494-3.2303,3.71477-.05494,0-4.09212-.3231-1.23883-.1073-2.638-.10747a21.34,21.34,0,0,0-2.53088.16138q-2.261.269-2.85364.26919a3.06646,3.06646,0,0,1-2.36847-.9959,3.70441,3.70441,0,0,1-.91573-2.6114q0-3.01467,2.6387-3.015a3.03881,3.03881,0,0,1,.88809.18833,3.00747,3.00747,0,0,0,.88809.18868q.91539,0,.91573-3.01536V88.3391q0-3.01467-.91573-3.01536a2.996,2.996,0,0,0-.969.21563,2.78863,2.78863,0,0,1-.86114.10747q-2.58444,0-2.58479-2.9611a3.68445,3.68445,0,0,1,.91573-2.63835,3.24073,3.24073,0,0,1,2.47628-.969q.43022,0,1.83078.16138a25.687,25.687,0,0,0,2.74582.21528,9.486,9.486,0,0,0,2.15353-.21528A15.9175,15.9175,0,0,1,52.94741,79.07843Z" transform="translate(-8.83113 -76.38617)"/><path class="cls-1" d="M70.44519,95.60761V97.815l-.05391,3.33811-.10781,3.6073q-.05391,1.77687-.05391,1.45377,0,3.17743,2.04641,3.17639,1.93756,0,1.9379-2.85364a2.90893,2.90893,0,0,0-.05391-.64585v-.7001a4.35028,4.35028,0,0,1-.05391-.53838,2.56991,2.56991,0,0,1,2.90754-2.9072q3.392,0,3.392,5.43773a8.7167,8.7167,0,0,1-2.53019,6.64927,9.854,9.854,0,0,1-7.05357,2.39611q-8.88331,0-8.88366-9.36848,0-1.50681.13477-4.52269.13373-3.01467.13477-4.52235v-1.723a3.61242,3.61242,0,0,0-.24258-1.696q-.24258-.34988-1.15763-.35005h-.86114a2.06445,2.06445,0,0,1-1.66906-.78062,3.05768,3.05768,0,0,1-.6462-2.01911,3.4173,3.4173,0,0,1,.67315-2.12658,1.95635,1.95635,0,0,1,1.58819-.88844h1.02286q1.2917,0,1.50733-.75367a4.57913,4.57913,0,0,0,.16172-1.45377V83.38549a2.9548,2.9548,0,0,1,.9959-2.58444,6.7318,6.7318,0,0,1,3.6346-.69976,4.32392,4.32392,0,0,1,2.55715.53838,3.02992,3.02992,0,0,1,.67315,2.36916V85.916a3.804,3.804,0,0,0,.2958,1.93825q.29545.37735,1.535.377h3.87649q3.17535,0,3.17639,2.9611,0,2.8545-2.90754,2.85364H72.00643q-1.131,0-1.3463.377A2.48089,2.48089,0,0,0,70.44519,95.60761Z" transform="translate(-8.83113 -76.38617)"/><path class="cls-1" d="M106.19546,99.53766a5.47207,5.47207,0,0,1-.56534,3.01536,2.6696,2.6696,0,0,1-2.23439.75367H90.25892a2.37392,2.37392,0,0,0-1.21153.18833q-.24258.18919-.24189.94234a5.21255,5.21255,0,0,0,1.45343,3.76868,4.86854,4.86854,0,0,0,3.66086,1.50768q2.262,0,4.63051-2.47663a4.80906,4.80906,0,0,1,3.55374-1.723,3.70977,3.70977,0,0,1,2.61105.91539,3.01138,3.01138,0,0,1,.9959,2.31525q0,3.123-3.419,5.30331a15.15675,15.15675,0,0,1-8.31832,2.18048q-6.40772,0-10.22927-3.87649-3.82431-3.87667-3.82328-10.33743a14.68631,14.68631,0,0,1,3.79632-10.52611,13.04851,13.04851,0,0,1,9.93347-4.01092,12.62476,12.62476,0,0,1,9.12624,3.2842A11.60634,11.60634,0,0,1,106.19546,99.53766ZM89.07434,96.84575a.87043.87043,0,0,0,.16172.53838q.16172.21563,1.13067.21528h6.03a1.61465,1.61465,0,0,0,.9959-.18833.942.942,0,0,0,.18868-.67315,3.13747,3.13747,0,0,0-1.23849-2.44968,4.35844,4.35844,0,0,0-2.90754-1.04981,4.28711,4.28711,0,0,0-3.49983,1.66906A3.25379,3.25379,0,0,0,89.07434,96.84575Z" transform="translate(-8.83113 -76.38617)"/><path class="cls-1" d="M117.87816,89.90034v4.5766a11.57709,11.57709,0,0,1,1.77687-4.03822,8.00441,8.00441,0,0,1,6.62231-2.9611,6.97271,6.97271,0,0,1,4.9809,1.91129,6.23289,6.23289,0,0,1,2.01876,4.711,5.20385,5.20385,0,0,1-1.29239,3.63426,4.23607,4.23607,0,0,1-3.2842,1.42682,3.63028,3.63028,0,0,1-2.55715-.9693,3.09912,3.09912,0,0,1-1.04981-2.36881,5.04263,5.04263,0,0,1,.69941-2.1h-.32275q-3.60765,0-4.84544,3.82293a23.42652,23.42652,0,0,0-.96964,7.05288v2.04606a5.83319,5.83319,0,0,0,.32344,2.47663.83741.83741,0,0,0,.75332.3231,5.94089,5.94089,0,0,0,1.3463-.21528,5.9069,5.9069,0,0,1,1.29239-.21528,2.84985,2.84985,0,0,1,2.85364,2.85329,3.54421,3.54421,0,0,1-1.0505,2.6114,3.48084,3.48084,0,0,1-2.55715,1.04981,30.20033,30.20033,0,0,1-3.01536-.26919,29.388,29.388,0,0,0-3.392-.16138,35.53817,35.53817,0,0,0-3.607.16138q-2.58444.269-3.17639.26919-3.33915,0-3.33811-3.6073,0-3.01467,2.5841-3.015a2.98608,2.98608,0,0,1,.969.18833,2.712,2.712,0,0,0,.80792.18868q.91435,0,.915-3.01536V97.54586q0-3.06909-.915-3.06892a3.62728,3.62728,0,0,0-.83487.18833,3.52836,3.52836,0,0,1-.942.18833q-2.58444,0-2.5841-2.9611a3.95688,3.95688,0,0,1,.86114-2.63835,2.75622,2.75622,0,0,1,2.20744-1.02286,7.49423,7.49423,0,0,1,1.50733.21528,8.44379,8.44379,0,0,0,1.83078.21528,11.952,11.952,0,0,0,1.88469-.21528,11.93822,11.93822,0,0,1,1.83009-.21528A1.47553,1.47553,0,0,1,117.87816,89.90034Z" transform="translate(-8.83113 -76.38617)"/><path class="cls-1" d="M143.77444,89.739v2.5841q4.14568-4.84544,9.36883-4.84544,5.59911,0,7.914,4.19959,1.23883,2.1537,1.23849,6.78369V106.537q0,2.74617,1.07677,2.74617a3.12265,3.12265,0,0,0,.80792-.16172,2.2985,2.2985,0,0,1,.80723-.10747q2.36881,0,2.36916,2.79973,0,3.71494-3.2303,3.71477a22.95317,22.95317,0,0,1-2.5841-.21528,22.99945,22.99945,0,0,0-2.58479-.21528,20.28764,20.28764,0,0,0-2.85364.21528,18.26885,18.26885,0,0,1-2.47628.21528q-3.17743,0-3.17708-3.2842,0-2.85294,2.20744-3.015,1.45446-.1073,1.45412-1.346v-7.5377a8.64674,8.64674,0,0,0-.80792-4.38827,3.00451,3.00451,0,0,0-2.74582-1.2651,4.78573,4.78573,0,0,0-3.63391,1.50733,5.33949,5.33949,0,0,0-1.42716,3.82293v5.59946a10.98221,10.98221,0,0,0,.21563,2.93415q.21459.51264,1.23849.67315,1.93756.27006,1.9379,2.9072,0,3.392-2.85364,3.392a15.19718,15.19718,0,0,1-1.99181-.16138,24.47019,24.47019,0,0,0-2.96145-.26919,28.23146,28.23146,0,0,0-2.88059.21528,28.2449,28.2449,0,0,1-2.88059.21528q-3.391,0-3.39133-3.6073,0-3.01467,2.5841-3.015a2.98608,2.98608,0,0,1,.969.18833,2.712,2.712,0,0,0,.80792.18868q.91435,0,.915-3.01536V97.54586q0-3.06909-.915-3.06892a3.62728,3.62728,0,0,0-.83487.18833,3.52836,3.52836,0,0,1-.942.18833q-2.58444,0-2.5841-2.9611a3.87957,3.87957,0,0,1,.88809-2.63835,2.9529,2.9529,0,0,1,2.34221-1.02286,12.72989,12.72989,0,0,1,1.83078.26919,7.26052,7.26052,0,0,0,1.39952.16138,18.72474,18.72474,0,0,0,2.20744-.21528q1.56124-.21459,1.723-.21528Q143.77444,88.23128,143.77444,89.739Z" transform="translate(-8.83113 -76.38617)"/><path class="cls-1" d="M190.50868,116.22856q-4.41522,0-5.92221-3.55374a12.58912,12.58912,0,0,1-8.93757,3.55374,9.87951,9.87951,0,0,1-6.784-2.23439,7.54213,7.54213,0,0,1-2.53088-5.94951q0-5.65354,4.9-7.32242a34.33757,34.33757,0,0,1,4.84544-1.18458,16.45037,16.45037,0,0,0,5.19584-1.48038,2.7868,2.7868,0,0,0,1.37256-2.55749,2.552,2.552,0,0,0-1.04981-2.073,4.06805,4.06805,0,0,0-2.61105-.83453q-1.77687,0-1.77687,1.13067a5.21329,5.21329,0,0,0,.05391.754v.21528a3.13539,3.13539,0,0,1-1.26544,2.53054,4.84811,4.84811,0,0,1-3.14944,1.02286,5.03415,5.03415,0,0,1-3.55374-1.292,4.2118,4.2118,0,0,1-1.39952-3.23064q0-2.90737,3.06857-4.57625a17.83847,17.83847,0,0,1,8.45309-1.66906q5.81474,0,8.668,1.77652,3.06961,1.93859,3.06927,7.2146V107.6141q0,1.72348.86114,1.72262a5.724,5.724,0,0,0,.80792-.05356,1.2,1.2,0,0,1,.37666-.05391,2.94209,2.94209,0,0,1,2.96145,2.9611,3.43392,3.43392,0,0,1-1.58819,2.90754A6.84866,6.84866,0,0,1,190.50868,116.22856Zm-7.80689-11.522V103.522a48.21837,48.21837,0,0,1-4.73832,1.346q-2.96076.7547-2.96076,2.31525,0,2.47715,2.90754,2.47663Q182.70075,109.65981,182.70179,104.70655Z" transform="translate(-8.83113 -76.38617)"/><path class="cls-1" d="M206.553,95.60761V97.815l-.05391,3.33811-.10781,3.6073q-.05391,1.77687-.05391,1.45377,0,3.17743,2.04641,3.17639,1.93756,0,1.9379-2.85364a2.90893,2.90893,0,0,0-.05391-.64585v-.7001a4.35027,4.35027,0,0,1-.05391-.53838,2.56991,2.56991,0,0,1,2.90754-2.9072q3.392,0,3.392,5.43773a8.7167,8.7167,0,0,1-2.53019,6.64927,9.854,9.854,0,0,1-7.05357,2.39611q-8.88331,0-8.88366-9.36848,0-1.50681.13477-4.52269.13373-3.01467.13477-4.52235v-1.723a3.61242,3.61242,0,0,0-.24258-1.696q-.24258-.34988-1.15763-.35005h-.86114a2.06445,2.06445,0,0,1-1.66906-.78062,3.05768,3.05768,0,0,1-.6462-2.01911,3.4173,3.4173,0,0,1,.67315-2.12658,1.95635,1.95635,0,0,1,1.58819-.88844h1.02286q1.2917,0,1.50733-.75367a4.57913,4.57913,0,0,0,.16172-1.45377V83.38549a2.9548,2.9548,0,0,1,.9959-2.58444,6.7318,6.7318,0,0,1,3.6346-.69976,4.32392,4.32392,0,0,1,2.55715.53838,3.02992,3.02992,0,0,1,.67315,2.36916V85.916a3.804,3.804,0,0,0,.2958,1.93825q.29545.37735,1.535.377h3.87649q3.17535,0,3.17639,2.9611,0,2.8545-2.90754,2.85364h-4.41488q-1.131,0-1.3463.377A2.48089,2.48089,0,0,0,206.553,95.60761Z" transform="translate(-8.83113 -76.38617)"/><path class="cls-1" d="M227.55065,88.23128q1.5063,0,1.50733,2.09962V106.537q0,2.74617,1.02286,2.74617a4.03955,4.03955,0,0,0,.781-.13477,4.2397,4.2397,0,0,1,.942-.13442q2.261,0,2.26135,2.79973,0,3.71494-3.17639,3.71477-.53907,0-3.01536-.26919a32.73684,32.73684,0,0,0-3.44593-.16138,27.50521,27.50521,0,0,0-2.85364.21528,27.38508,27.38508,0,0,1-2.79973.21528,3.06646,3.06646,0,0,1-2.36847-.9959,3.62758,3.62758,0,0,1-.91573-2.55749q0-3.06909,2.58479-3.06892l1.39952.3231a1.5792,1.5792,0,0,0,.37735.05391q.96826,0,.969-3.01536V97.54586q0-3.06909-.91573-3.06892a5.18825,5.18825,0,0,0-.969.26919,4.59754,4.59754,0,0,1-.86114.10747q-2.58444,0-2.58479-3.015a3.70615,3.70615,0,0,1,.91573-2.6114,3.13345,3.13345,0,0,1,2.42238-.9959,13.24252,13.24252,0,0,1,1.723.16138,22.34333,22.34333,0,0,0,3.01536.26919,16.84685,16.84685,0,0,0,2.36916-.21528Q227.38893,88.232,227.55065,88.23128Zm-3.06927-2.04606a4.87231,4.87231,0,1,1,3.47288-1.42682A4.7091,4.7091,0,0,1,224.48139,86.18522Z" transform="translate(-8.83113 -76.38617)"/><path class="cls-1" d="M245.58682,97.38413l3.71477,11.84511,3.98431-11.84511q.16172-.43022.43057-1.18458a3.7185,3.7185,0,0,0,.16172-.86148q0-.75315-1.39952-1.02286-2.04744-.43022-2.04641-3.015,0-3.06909,2.90754-3.06892a28.2449,28.2449,0,0,1,2.88059.21528,28.03016,28.03016,0,0,0,2.88059.21528,20.15587,20.15587,0,0,0,2.96076-.21528,16.36578,16.36578,0,0,1,2.10031-.21528q3.17639,0,3.17639,3.392,0,3.2303-2.74582,3.2303a.87271.87271,0,0,1-.26954-.05391h-.26885a2.56906,2.56906,0,0,0-.7001-.10747q-.91643,0-1.50733,1.66906-.21563.593-1.07677,2.79973l-4.63051,12.06039q-1.66906,4.41522-4.79154,4.19959l-2.53088-.16172-2.53019.16172h-.21563q-2.53157,0-3.71477-3.23064L236.75707,97.061a11.111,11.111,0,0,0-.91573-1.9652.95686.95686,0,0,0-.80723-.34971h-.26954a.88108.88108,0,0,1-.26885.05356,3.72811,3.72811,0,0,1-.91573.10781,2.18871,2.18871,0,0,1-1.77618-.86148,3.38676,3.38676,0,0,1-.7001-2.20744q0-3.60661,3.2842-3.6073a20.8814,20.8814,0,0,1,2.45.21528,20.697,20.697,0,0,0,2.44933.21528q1.131,0,3.87649-.26919,1.668-.1612,2.477-.16138,2.90685,0,2.90754,3.06892,0,2.80007-2.15353,3.015-1.34665.16172-1.3463,1.07677A12.96989,12.96989,0,0,0,245.58682,97.38413Z" transform="translate(-8.83113 -76.38617)"/><path class="cls-1" d="M291.99762,99.53766a5.47207,5.47207,0,0,1-.56534,3.01536,2.6696,2.6696,0,0,1-2.23439.75367H276.06108a2.37392,2.37392,0,0,0-1.21153.18833q-.24258.18919-.24189.94234a5.21255,5.21255,0,0,0,1.45343,3.76868,4.86854,4.86854,0,0,0,3.66086,1.50768q2.262,0,4.63051-2.47663a4.80906,4.80906,0,0,1,3.55374-1.723,3.70977,3.70977,0,0,1,2.61105.91539,3.01138,3.01138,0,0,1,.9959,2.31525q0,3.123-3.419,5.30331a15.15675,15.15675,0,0,1-8.31832,2.18048q-6.40772,0-10.22927-3.87649-3.82431-3.87667-3.82328-10.33743a14.68631,14.68631,0,0,1,3.79632-10.52611,13.04851,13.04851,0,0,1,9.93347-4.01092,12.62476,12.62476,0,0,1,9.12624,3.2842A11.60634,11.60634,0,0,1,291.99762,99.53766ZM274.8765,96.84575a.87043.87043,0,0,0,.16172.53838q.16172.21563,1.13067.21528h6.03a1.61465,1.61465,0,0,0,.9959-.18833.942.942,0,0,0,.18868-.67315,3.13747,3.13747,0,0,0-1.23849-2.44968,4.35844,4.35844,0,0,0-2.90754-1.04981,4.28711,4.28711,0,0,0-3.49983,1.66906A3.25379,3.25379,0,0,0,274.8765,96.84575Z" transform="translate(-8.83113 -76.38617)"/><path class="cls-1" d="M48.31829,134.64035a7.2075,7.2075,0,0,1,1.009-3.28006,6.17211,6.17211,0,0,0-2.52328-.50452q-6.18276,0-6.18138,5.92947v2.52293q0,2.39784,2.77554,2.39715h3.78457q7.31482,0,7.31689,6.81237,0,7.06653-6.93885,7.06463H43.3982q-2.77727,0-2.77554,3.28006v25.35686a35.09827,35.09827,0,0,0,.12578,4.41557q.37839,2.64976,2.64976,2.64976a21.22149,21.22149,0,0,0,2.27033-.253,10.98,10.98,0,0,1,2.902-.378q5.92774,0,5.92912,6.93816a8.11194,8.11194,0,0,1-2.14455,5.80334,7.14373,7.14373,0,0,1-5.4246,2.271q-.255,0-7.69562-.75678-2.52535-.25191-7.31689-.25226a77.95155,77.95155,0,0,0-8.57888.378q-5.426.6303-6.6859.631a7.3366,7.3366,0,0,1-5.67755-2.33391,8.68137,8.68137,0,0,1-2.14455-6.11849q0-7.06394,6.18207-7.06463a6.98129,6.98129,0,0,1,2.27033.44163,6.38993,6.38993,0,0,0,1.7665.44093q2.27033,0,2.27033-7.06463v-25.1046q0-2.64924-1.13482-3.0278a3.9223,3.9223,0,0,0-1.64-.25226h-3.0278q-6.68866,0-6.68659-6.56011,0-7.31482,6.93885-7.31689h2.27033q2.14386,0,2.77554-.69388.6303-.692.75747-3.34329a17.50553,17.50553,0,0,1,6.87526-13.75087q6.49584-5.04449,17.34643-5.04621,9.08339,0,14.57089,3.65845,5.48819,3.66052,5.4875,9.714a8.17452,8.17452,0,0,1-2.77485,6.30785,9.92341,9.92341,0,0,1-6.93885,2.52293,8.49861,8.49861,0,0,1-5.614-1.829A5.72745,5.72745,0,0,1,48.31829,134.64035Z" transform="translate(-8.83113 -76.38617)"/><path class="cls-1" d="M111.39407,207.30612q-10.34607,0-13.877-8.32662a29.497,29.497,0,0,1-20.94233,8.32662q-9.96665,0-15.89577-5.23524-5.93085-5.2342-5.92912-13.94059,0-13.2467,11.4802-17.15706A80.40521,80.40521,0,0,1,77.58377,168.198q8.95692-1.51407,12.17408-3.46942a6.52808,6.52808,0,0,0,3.21716-5.99236,5.98,5.98,0,0,0-2.4597-4.85719,9.53042,9.53042,0,0,0-6.11849-1.95518q-4.16331,0-4.16331,2.64906a12.41612,12.41612,0,0,0,.12578,1.76616v.50486a7.34623,7.34623,0,0,1-2.96421,5.92912,11.35881,11.35881,0,0,1-7.38047,2.39715,11.79514,11.79514,0,0,1-8.32593-3.0278,9.86827,9.86827,0,0,1-3.28006-7.56949q0-6.812,7.19042-10.72308,7.19145-3.9088,19.80682-3.9107,13.62509,0,20.31133,4.163,7.19042,4.5417,7.19042,16.9048v26.11433q0,4.03891,2.01876,4.03683a13.2814,13.2814,0,0,0,1.89229-.12647,2.84753,2.84753,0,0,1,.88325-.12578,6.89185,6.89185,0,0,1,6.93816,6.93885,8.0454,8.0454,0,0,1-3.72168,6.81237A16.04286,16.04286,0,0,1,111.39407,207.30612ZM93.1015,180.30889v-2.77554q-.88429.5059-11.10216,3.15358-6.93954,1.76858-6.93816,5.4246,0,5.80437,6.81237,5.80334Q93.09977,191.91487,93.1015,180.30889Z" transform="translate(-8.83113 -76.38617)"/><path class="cls-1" d="M159.96324,161.76406a6.78261,6.78261,0,0,1,1.26129-3.78492,11.0295,11.0295,0,0,0-6.43364-2.01842,10.79043,10.79043,0,0,0-9.0205,4.60459q-3.47081,4.607-3.46873,12.30021,0,7.94823,3.6581,12.74149a11.61139,11.61139,0,0,0,9.71439,4.7943q6.17965,0,9.0827-6.68659,1.76547-4.16331,3.0278-5.29813,1.76547-1.51407,5.55108-1.5139a9.51843,9.51843,0,0,1,6.93885,2.58583,8.85808,8.85808,0,0,1,2.64906,6.623q0,8.5806-8.32662,14.88673a32.0585,32.0585,0,0,1-19.9326,6.30785q-14.88673,0-23.71717-9.14629-8.83148-9.14559-8.83044-24.53719,0-15.517,9.0827-24.60043,9.08339-9.08339,24.47464-9.083,11.09974,0,18.35546,5.23524,7.25262,5.23679,7.254,13.30959a10.661,10.661,0,0,1-3.28006,8.1369,11.82453,11.82453,0,0,1-8.4524,3.091,10.477,10.477,0,0,1-6.93885-2.20778A7.11857,7.11857,0,0,1,159.96324,161.76406Z" transform="translate(-8.83113 -76.38617)"/><path class="cls-1" d="M209.54213,158.98852v5.17234l-.12578,7.82175-.25226,8.45206q-.12751,4.16331-.12647,3.40653,0,7.44544,4.79361,7.44337,4.5417,0,4.542-6.68659a6.7912,6.7912,0,0,0-.12647-1.51355v-1.64a10.16152,10.16152,0,0,1-.12578-1.262q0-6.812,6.81237-6.812,7.94719,0,7.94788,12.74115,0,9.96768-5.92981,15.58062-5.93085,5.61155-16.52607,5.614-20.81551,0-20.81585-21.95136,0-3.5299.31515-10.5966.31411-7.06394.31584-10.59729V160.124q0-3.152-.5681-3.97394-.56706-.819-2.712-.82h-2.01876a4.83886,4.83886,0,0,1-3.91036-1.8294A7.16786,7.16786,0,0,1,179.5171,148.77a8.00812,8.00812,0,0,1,1.57714-4.98332,4.586,4.586,0,0,1,3.72168-2.08131h2.39681q3.02814,0,3.53232-1.76616a10.73878,10.73878,0,0,0,.37873-3.40653v-6.18138q0-4.4147,2.33391-6.0556,2.33253-1.638,8.51529-1.64,4.41419,0,5.992,1.26164,1.57679,1.26268,1.57714,5.55073v6.81237q0,3.66052.69388,4.5417.6925.88429,3.59521.88325h9.08339q7.44233,0,7.44337,6.9385,0,6.68814-6.81237,6.68624H213.20092q-2.64976,0-3.15427.88291A5.81618,5.81618,0,0,0,209.54213,158.98852Z" transform="translate(-8.83113 -76.38617)"/><path class="cls-1" d="M256.8507,139.93917a25.202,25.202,0,0,1,16.40028,5.4246q.50175-5.29847,6.81237-5.29847,6.43364,0,6.43364,4.54135a13.41163,13.41163,0,0,1-.50452,3.40619,26.166,26.166,0,0,0-.37873,4.28944c0,.25226.04147.92645.12647,2.01842v3.40619q0,6.68814-6.68659,6.68624-4.79568,0-8.32593-4.794-4.29082-5.80075-10.47116-5.803-7.31793,0-7.31689,5.04621a3.77171,3.77171,0,0,0,2.39681,3.72168q2.39473,1.073,12.61571,2.83843,8.32662,1.51407,12.29987,3.40619a16.65787,16.65787,0,0,1,6.49722,5.4246,18.12073,18.12073,0,0,1,3.15427,10.59695,20.39306,20.39306,0,0,1-7.38047,16.02155q-7.38013,6.43468-18.48194,6.43433a32.083,32.083,0,0,1-20.18486-7.06463q0,6.18276-6.30785,6.18138-6.812,0-6.81237-5.55108,0-1.25957.25226-3.91036.25191-2.64976.25226-3.911,0-1.13517-.18868-3.40584-.18971-2.27137-.18937-3.40653,0-5.67686,7.06463-5.67686a10.63632,10.63632,0,0,1,5.17234,1.009,12.98177,12.98177,0,0,1,3.78457,3.911q3.15255,4.66817,5.80334,6.11849,2.64872,1.45135,7.82141,1.45066,9.08339,0,9.08339-5.67686,0-3.90932-7.31689-5.4246l-7.31689-1.51424q-8.959-1.89194-12.67929-3.78423a13.482,13.482,0,0,1-5.86623-5.99236,19.96711,19.96711,0,0,1-2.14455-9.39889q0-9.46126,6.245-15.3909Q246.75827,139.94,256.8507,139.93917Z" transform="translate(-8.83113 -76.38617)"/></svg>